<svg width="990" height="67" viewBox="0 0 990 67" fill="none" xmlns="http://www.w3.org/2000/svg">
<path d="M21.3379 36.085L30.0205 20.8281H35.8477V45H30.0205V29.7598L21.3379 45H15.5107V20.8281H21.3379V36.085ZM59.04 40.5176V45H42.0566V40.5176H59.04ZM43.9824 40.5176V50.9268H38.5869L38.1885 40.5176H43.9824ZM63.0078 40.5176L62.3936 50.9434H57.1641V40.5176H63.0078ZM56.5 20.8281V25.3271H44.3643V20.8281H56.5ZM60.418 20.8281V45H54.624V20.8281H60.418ZM43.9824 20.8281H49.793L49.0791 30.7393C48.9574 32.4326 48.7637 33.9046 48.498 35.1553C48.2324 36.4059 47.917 37.485 47.5518 38.3926C47.1865 39.3001 46.7881 40.0804 46.3564 40.7334C45.9248 41.3864 45.471 41.9564 44.9951 42.4434C44.5303 42.9303 44.0654 43.373 43.6006 43.7715C43.1357 44.1699 42.6875 44.5794 42.2559 45H38.7197V40.5176H39.8818C40.2249 40.2741 40.568 39.9476 40.9111 39.5381C41.2653 39.1175 41.5973 38.5475 41.9072 37.8281C42.2171 37.1087 42.4883 36.1735 42.7207 35.0225C42.9531 33.8714 43.1302 32.4437 43.252 30.7393L43.9824 20.8281ZM81.6514 40.5176V45H68.7686V40.5176H81.6514ZM70.8438 20.8281V45H65.0166V20.8281H70.8438ZM79.9912 30.4238V34.7568H68.7686V30.4238H79.9912ZM81.7012 20.8281V25.3271H68.7686V20.8281H81.7012ZM67.0088 17.1924C67.0088 16.5726 67.2578 16.0524 67.7559 15.6318C68.2539 15.2002 68.8405 14.9844 69.5156 14.9844C70.2018 14.9844 70.7884 15.2002 71.2754 15.6318C71.7734 16.0524 72.0225 16.5726 72.0225 17.1924C72.0225 17.8122 71.7734 18.3379 71.2754 18.7695C70.7884 19.1901 70.2018 19.4004 69.5156 19.4004C68.8405 19.4004 68.2539 19.1901 67.7559 18.7695C67.2578 18.3379 67.0088 17.8122 67.0088 17.1924ZM75.625 17.1924C75.625 16.5726 75.874 16.0524 76.3721 15.6318C76.8701 15.2002 77.4567 14.9844 78.1318 14.9844C78.818 14.9844 79.4046 15.2002 79.8916 15.6318C80.3896 16.0524 80.6387 16.5726 80.6387 17.1924C80.6387 17.8122 80.3896 18.3379 79.8916 18.7695C79.4046 19.1901 78.818 19.4004 78.1318 19.4004C77.4567 19.4004 76.8701 19.1901 76.3721 18.7695C75.874 18.3379 75.625 17.8122 75.625 17.1924ZM86.9307 20.8281H91.6787L97.0742 37.6455L102.47 20.8281H107.218L99 45H95.1484L86.9307 20.8281ZM84.042 20.8281H88.9561L89.8691 39.3555V45H84.042V20.8281ZM105.192 20.8281H110.123V45H104.279V39.3555L105.192 20.8281ZM123.388 33.0635H115.884L115.851 32.167H122.026C123.487 32.167 124.71 31.9788 125.695 31.6025C126.691 31.2262 127.438 30.6507 127.937 29.876C128.435 29.1012 128.684 28.1273 128.684 26.9541C128.684 25.792 128.418 24.8236 127.887 24.0488C127.367 23.2741 126.586 22.693 125.546 22.3057C124.517 21.9183 123.233 21.7246 121.694 21.7246H116.232V45H115.336V20.8281H121.694C122.912 20.8281 124.007 20.9499 124.981 21.1934C125.955 21.4368 126.785 21.8132 127.472 22.3223C128.158 22.8314 128.684 23.4788 129.049 24.2646C129.414 25.0394 129.597 25.958 129.597 27.0205C129.597 28.0166 129.409 28.9131 129.032 29.71C128.667 30.5068 128.13 31.1543 127.422 31.6523C126.714 32.1504 125.839 32.4548 124.799 32.5654L123.388 33.0635ZM123.222 45H115.851L116.133 44.1035H123.222C124.583 44.1035 125.751 43.8766 126.725 43.4229C127.71 42.9691 128.468 42.3161 128.999 41.4639C129.53 40.6006 129.796 39.5713 129.796 38.376C129.796 37.4463 129.558 36.5775 129.082 35.7695C128.617 34.9616 127.909 34.3086 126.957 33.8105C126.005 33.3125 124.815 33.0635 123.388 33.0635H119.47L119.503 32.167H125.23L125.297 32.4824C126.315 32.6042 127.228 32.9417 128.036 33.4951C128.855 34.0485 129.503 34.7513 129.979 35.6035C130.454 36.4447 130.692 37.3577 130.692 38.3428C130.692 39.7705 130.371 40.9824 129.729 41.9785C129.099 42.9635 128.224 43.7161 127.106 44.2363C125.989 44.7454 124.694 45 123.222 45ZM140.155 20.8281V45H134.345V20.8281H140.155ZM154.101 20.8281L145.418 35.4375H139.143L138.445 30.1748H142.413L147.062 20.8281H154.101ZM148.058 45L142.396 34.4248L146.63 30.5234L154.931 45H148.058ZM161.887 36.085L170.569 20.8281H176.396V45H170.569V29.7598L161.887 45H156.06V20.8281H161.887V36.085ZM196.252 30.4238V34.9062H183.851V30.4238H196.252ZM185.793 20.8281V45H179.966V20.8281H185.793ZM200.17 20.8281V45H194.359V20.8281H200.17ZM224.325 32.4326V33.4121C224.325 35.2604 224.065 36.9206 223.545 38.3926C223.036 39.8535 222.311 41.1042 221.37 42.1445C220.429 43.1738 219.317 43.9652 218.033 44.5186C216.749 45.0609 215.333 45.332 213.783 45.332C212.223 45.332 210.795 45.0609 209.5 44.5186C208.216 43.9652 207.098 43.1738 206.146 42.1445C205.206 41.1042 204.475 39.8535 203.955 38.3926C203.446 36.9206 203.191 35.2604 203.191 33.4121V32.4326C203.191 30.5843 203.446 28.9242 203.955 27.4521C204.475 25.9801 205.2 24.7295 206.13 23.7002C207.071 22.6598 208.183 21.8685 209.467 21.3262C210.762 20.7728 212.189 20.4961 213.75 20.4961C215.299 20.4961 216.716 20.7728 218 21.3262C219.295 21.8685 220.413 22.6598 221.354 23.7002C222.294 24.7295 223.025 25.9801 223.545 27.4521C224.065 28.9242 224.325 30.5843 224.325 32.4326ZM218.415 33.4121V32.3994C218.415 31.2041 218.31 30.1527 218.1 29.2451C217.9 28.3265 217.602 27.5573 217.203 26.9375C216.805 26.3177 216.312 25.8529 215.726 25.543C215.15 25.222 214.492 25.0615 213.75 25.0615C212.975 25.0615 212.3 25.222 211.725 25.543C211.149 25.8529 210.668 26.3177 210.28 26.9375C209.893 27.5573 209.6 28.3265 209.4 29.2451C209.212 30.1527 209.118 31.2041 209.118 32.3994V33.4121C209.118 34.5964 209.212 35.6478 209.4 36.5664C209.6 37.474 209.893 38.2432 210.28 38.874C210.679 39.5049 211.166 39.9808 211.741 40.3018C212.328 40.6227 213.008 40.7832 213.783 40.7832C214.525 40.7832 215.183 40.6227 215.759 40.3018C216.334 39.9808 216.816 39.5049 217.203 38.874C217.602 38.2432 217.9 37.474 218.1 36.5664C218.31 35.6478 218.415 34.5964 218.415 33.4121Z" fill="white"/>
</svg>
