<svg width="13" height="12" viewBox="0 0 13 12" fill="none" xmlns="http://www.w3.org/2000/svg">
<path fill-rule="evenodd" clip-rule="evenodd" d="M10.6421 10.2426C9.51684 11.3679 7.99071 12 6.39941 12C4.80812 12 3.28199 11.3679 2.15677 10.2426C1.03156 9.11742 0.399414 7.5913 0.399414 6C0.399414 4.4087 1.03156 2.88258 2.15677 1.75736C3.28199 0.632141 4.80812 0 6.39941 0C7.99071 0 9.51684 0.632141 10.6421 1.75736C11.7673 2.88258 12.3994 4.4087 12.3994 6C12.3994 7.5913 11.7673 9.11742 10.6421 10.2426ZM10.1117 9.71231C11.0963 8.72774 11.6494 7.39239 11.6494 6C11.6494 4.60761 11.0963 3.27226 10.1117 2.28769C9.12716 1.30312 7.7918 0.75 6.39941 0.75C5.00703 0.75 3.67167 1.30312 2.6871 2.28769C1.70254 3.27226 1.14941 4.60761 1.14941 6C1.14941 7.39239 1.70254 8.72774 2.6871 9.71231C3.67167 10.6969 5.00703 11.25 6.39941 11.25C7.7918 11.25 9.12716 10.6969 10.1117 9.71231ZM6.28958 2.35984C6.35991 2.43016 6.39941 2.52554 6.39941 2.625V6.5325L8.83541 7.9245C8.91926 7.97508 8.97999 8.05645 9.00464 8.15122C9.02928 8.24598 9.01588 8.34663 8.9673 8.43165C8.91872 8.51667 8.83881 8.57931 8.74465 8.60619C8.65049 8.63307 8.54956 8.62206 8.46341 8.5755L5.83841 7.0755C5.78102 7.04272 5.73331 6.99534 5.70012 6.93818C5.66693 6.88102 5.64944 6.8161 5.64941 6.75V2.625C5.64941 2.52554 5.68892 2.43016 5.75925 2.35984C5.82958 2.28951 5.92496 2.25 6.02441 2.25C6.12387 2.25 6.21925 2.28951 6.28958 2.35984Z" fill="black"/>
</svg>
